#!OML:ASF H:\Not Pregnant\Project 1\Capture day 1\Session 1\non-pregnant.ASF
:FULLY-SPECIFIED
:DEGREES
697
root 15.4958 16.4208 -24.3905 -176.4 -39.9274 -167.236
lowerback -1.42074 6.55337 12.2947
upperback -6.37003 8.68974 -1.38239
thorax -3.94159 3.66746 -8.29093
lowerneck -4.03188 0.247954 -29.9113
upperneck 19.8676 -3.5076 32.1891
head 7.41932 -2.23334 17.8839
rclavicle -2.69974e-014 5.56597e-015
rhumerus -34.5422 -9.93489 -78.3442
rradius 30.5248
rwrist 21.3928
rhand -12.0992 -0.978222
rfingers 7.12502
rthumb 13.9614 -30.4894
lclavicle -2.69974e-014 5.56597e-015
lhumerus -46.5467 -5.35824 84.5457
lradius 39.9821
lwrist 41.277
lhand -13.5358 -10.0875
lfingers 7.12502
lthumb 12.5767 19.514
rfemur 8.64354 -3.47832 29.9397
rtibia 2.70883
rfoot -12.3065 5.79527
rtoes -29.7146
lfemur -46.8806 9.42442 -19.1912
ltibia 27.0981
lfoot -10.7722 8.13304
ltoes -16.5017
698
root 15.3772 16.4292 -24.4909 -176.289 -40.0843 -167.211
lowerback -1.80042 6.66635 12.2019
upperback -6.50664 8.7784 -1.43311
thorax -3.85724 3.70911 -8.24955
lowerneck -4.08921 0.299079 -29.8458
upperneck 19.9967 -3.45049 32.2002
head 7.44677 -2.20081 17.8931
rclavicle 9.11676e-014 4.85035e-014
rhumerus -34.9686 -10.2038 -78.3571
rradius 30.4876
rwrist 21.4166
rhand -12.0914 -0.921569
rfingers 7.12502
rthumb 13.9689 -30.4323
lclavicle 9.11676e-014 4.85035e-014
lhumerus -46.6578 -5.27245 84.3987
lradius 39.3409
lwrist 41.0814
lhand -13.6922 -9.94958
lfingers 7.12502
lthumb 12.4259 19.6611
rfemur 10.4411 -3.31757 29.857
rtibia -1.90833e-014
rfoot -10.5577 6.20071
rtoes -30.3306
lfemur -46.9581 9.55215 -19.4941
ltibia 27.6801
lfoot -10.2211 7.58644
ltoes -16.1058
699
root 15.2571 16.4407 -24.5922 -176.138 -40.2653 -167.262
lowerback -2.18434 6.76744 12.0486
upperback -6.63036 8.85054 -1.503
thorax -3.76529 3.74654 -8.19452
lowerneck -4.1475 0.341897 -29.8038
upperneck 20.1029 -3.40061 32.2298
head 7.4711 -2.17185 17.9159
rclavicle -4.77083e-015 -1.35174e-014
rhumerus -35.3826 -10.5279 -78.3618
rradius 30.406
rwrist 21.4842
rhand -12.106 -0.862702
rfingers 7.12502
rthumb 13.9549 -30.3744
lclavicle -4.77083e-015 -1.35174e-014
lhumerus -46.7481 -5.19227 84.2333
lradius 38.6873
lwrist 40.8877
lhand -13.8458 -9.80687
lfingers 7.12502
lthumb 12.2778 19.8127
rfemur 10.8287 -3.19515 29.6759
rtibia -2.22639e-014
rfoot -9.9758 6.28726
rtoes -30.9358
lfemur -47.0642 9.7702 -19.9176
ltibia 28.2237
lfoot -9.66818 6.53124
ltoes -15.8765
700
root 15.1354 16.453 -24.6941 -175.953 -40.4834 -167.399
lowerback -2.56472 6.85074 11.8343
upperback -6.73639 8.90037 -1.59329
thorax -3.66622 3.7772 -8.1282
lowerneck -4.21046 0.380539 -29.7659
upperneck 20.1933 -3.35193 32.2653
head 7.49228 -2.14225 17.9413
rclavicle -1.97667e-014 4.92986e-014
rhumerus -35.7828 -10.9036 -78.3572
rradius 30.2769
rwrist 21.5898
rhand -12.1384 -0.813171
rfingers 7.12502
rthumb 13.9236 -30.327
lclavicle -1.97667e-014 4.92986e-014
lhumerus -46.8324 -5.13386 84.0587
lradius 38.0549
lwrist 40.7111
lhand -13.9948 -9.6486
lfingers 7.12502
lthumb 12.1341 19.9795
rfemur 11.2379 -3.11592 29.4257
rtibia -3.81667e-014
rfoot -9.31067 6.39689
rtoes -31.5345
lfemur -47.1423 10.0619 -20.4612
ltibia 28.7105
lfoot -9.19948 4.94181
ltoes -15.6613
701
root 15.0134 16.4645 -24.7959 -175.733 -40.7394 -167.62
lowerback -2.92765 6.90375 11.5545
upperback -6.83518 8.91396 -1.69968
thorax -3.58336 3.79189 -8.04752
lowerneck -4.25913 0.433186 -29.7237
upperneck 20.2709 -3.28562 32.3084
head 7.49914 -2.10364 17.9678
rclavicle 1.38901e-014 2.70347e-014
rhumerus -36.1811 -11.2972 -78.3616
rradius 30.0962
rwrist 21.735
rhand -12.1982 -0.772096
rfingers 7.12502
rthumb 13.866 -30.2899
lclavicle 1.38901e-014 2.70347e-014
lhumerus -46.9258 -5.06483 83.8553
lradius 37.4367
lwrist 40.5327
lhand -14.1442 -9.47489
lfingers 7.12502
lthumb 11.9901 20.1617
rfemur 11.6637 -3.08132 29.1099
rtibia -5.40694e-014
rfoot -8.54259 6.53751
rtoes -32.0982
lfemur -47.1543 10.3977 -21.1041
ltibia 29.1375
lfoot -8.84543 2.9243
ltoes -15.2368
